<?xml version="1.0" encoding="UTF-8" standalone="no"?>
<!-- Created with Inkscape (http://www.inkscape.org/) -->

<svg
   xmlns:svg="http://www.w3.org/2000/svg"
   xmlns="http://www.w3.org/2000/svg"
   version="1.1"
   width="566.92999"
   height="566.784"
   viewBox="0 0 566.93 566.784"
   id="Ebene_1"
   xml:space="preserve"><defs
   id="defs11"><path
     d="m -479.65984,274.90855 c 30.21918,-3.11932 61.41313,2.92426 88.12293,17.15663 29.63429,15.40192 53.80962,40.55229 68.04188,70.57631 14.81714,30.99889 18.91134,66.87221 11.50277,100.6007 -7.79849,35.28815 -28.26953,67.65204 -56.92902,89.6827 -26.70983,20.47101 -60.24331,32.16884 -93.9718,32.16884 -34.31335,0.38972 -68.62672,-11.11306 -95.92145,-32.16884 -23.59045,-18.13151 -41.72196,-43.28188 -51.66504,-71.35652 -14.03728,-39.1873 -11.3078,-84.22351 7.60355,-121.46143 23.00556,-46.98598 71.16124,-80.32436 123.21618,-85.19839 z"
     id="path28-3-5-4-4-0"
     style="fill:#d40000;fill-opacity:1;stroke:none;display:inline" /><path
     d="m -479.65984,274.90855 c 30.21918,-3.11932 61.41313,2.92426 88.12293,17.15663 29.63429,15.40192 53.80962,40.55229 68.04188,70.57631 14.81714,30.99889 18.91134,66.87221 11.50277,100.6007 -7.79849,35.28815 -28.26953,67.65204 -56.92902,89.6827 -26.70983,20.47101 -60.24331,32.16884 -93.9718,32.16884 -34.31335,0.38972 -68.62672,-11.11306 -95.92145,-32.16884 -23.59045,-18.13151 -41.72196,-43.28188 -51.66504,-71.35652 -14.03728,-39.1873 -11.3078,-84.22351 7.60355,-121.46143 23.00556,-46.98598 71.16124,-80.32436 123.21618,-85.19839 z"
     id="path28-3-5-4-4-8"
     style="fill:#ffffff;fill-opacity:1;stroke:none;display:inline" /><path
     d="m -479.65984,274.90855 c 30.21918,-3.11932 61.41313,2.92426 88.12293,17.15663 29.63429,15.40192 53.80962,40.55229 68.04188,70.57631 14.81714,30.99889 18.91134,66.87221 11.50277,100.6007 -7.79849,35.28815 -28.26953,67.65204 -56.92902,89.6827 -26.70983,20.47101 -60.24331,32.16884 -93.9718,32.16884 -34.31335,0.38972 -68.62672,-11.11306 -95.92145,-32.16884 -23.59045,-18.13151 -41.72196,-43.28188 -51.66504,-71.35652 -14.03728,-39.1873 -11.3078,-84.22351 7.60355,-121.46143 23.00556,-46.98598 71.16124,-80.32436 123.21618,-85.19839 z"
     id="path28-3-5-4-4-5"
     style="fill:#ffffff;fill-opacity:1;stroke:none;display:inline" /><path
     d="m -479.65984,274.90855 c 30.21918,-3.11932 61.41313,2.92426 88.12293,17.15663 29.63429,15.40192 53.80962,40.55229 68.04188,70.57631 14.81714,30.99889 18.91134,66.87221 11.50277,100.6007 -7.79849,35.28815 -28.26953,67.65204 -56.92902,89.6827 -26.70983,20.47101 -60.24331,32.16884 -93.9718,32.16884 -34.31335,0.38972 -68.62672,-11.11306 -95.92145,-32.16884 -23.59045,-18.13151 -41.72196,-43.28188 -51.66504,-71.35652 -14.03728,-39.1873 -11.3078,-84.22351 7.60355,-121.46143 23.00556,-46.98598 71.16124,-80.32436 123.21618,-85.19839 z"
     id="path28-3-5-4-4-5-1"
     style="fill:#ffffff;fill-opacity:1;stroke:none;display:inline" /><path
     d="m -479.65984,274.90855 c 30.21918,-3.11932 61.41313,2.92426 88.12293,17.15663 29.63429,15.40192 53.80962,40.55229 68.04188,70.57631 14.81714,30.99889 18.91134,66.87221 11.50277,100.6007 -7.79849,35.28815 -28.26953,67.65204 -56.92902,89.6827 -26.70983,20.47101 -60.24331,32.16884 -93.9718,32.16884 -34.31335,0.38972 -68.62672,-11.11306 -95.92145,-32.16884 -23.59045,-18.13151 -41.72196,-43.28188 -51.66504,-71.35652 -14.03728,-39.1873 -11.3078,-84.22351 7.60355,-121.46143 23.00556,-46.98598 71.16124,-80.32436 123.21618,-85.19839 z"
     id="path28-3-5-4-4-5-7"
     style="fill:#ffffff;fill-opacity:1;stroke:none;display:inline" /><path
     d="m -479.65984,274.90855 c 30.21918,-3.11932 61.41313,2.92426 88.12293,17.15663 29.63429,15.40192 53.80962,40.55229 68.04188,70.57631 14.81714,30.99889 18.91134,66.87221 11.50277,100.6007 -7.79849,35.28815 -28.26953,67.65204 -56.92902,89.6827 -26.70983,20.47101 -60.24331,32.16884 -93.9718,32.16884 -34.31335,0.38972 -68.62672,-11.11306 -95.92145,-32.16884 -23.59045,-18.13151 -41.72196,-43.28188 -51.66504,-71.35652 -14.03728,-39.1873 -11.3078,-84.22351 7.60355,-121.46143 23.00556,-46.98598 71.16124,-80.32436 123.21618,-85.19839 z"
     id="path28-3-5-4-4-8-2"
     style="fill:#ffffff;fill-opacity:1;stroke:none;display:inline" /><path
     d="m -479.65984,274.90855 c 30.21918,-3.11932 61.41313,2.92426 88.12293,17.15663 29.63429,15.40192 53.80962,40.55229 68.04188,70.57631 14.81714,30.99889 18.91134,66.87221 11.50277,100.6007 -7.79849,35.28815 -28.26953,67.65204 -56.92902,89.6827 -26.70983,20.47101 -60.24331,32.16884 -93.9718,32.16884 -34.31335,0.38972 -68.62672,-11.11306 -95.92145,-32.16884 -23.59045,-18.13151 -41.72196,-43.28188 -51.66504,-71.35652 -14.03728,-39.1873 -11.3078,-84.22351 7.60355,-121.46143 23.00556,-46.98598 71.16124,-80.32436 123.21618,-85.19839 z"
     id="path28-3-5-4-4-8-6"
     style="fill:#ffffff;fill-opacity:1;stroke:none;display:inline" /><path
     d="m -479.65984,274.90855 c 30.21918,-3.11932 61.41313,2.92426 88.12293,17.15663 29.63429,15.40192 53.80962,40.55229 68.04188,70.57631 14.81714,30.99889 18.91134,66.87221 11.50277,100.6007 -7.79849,35.28815 -28.26953,67.65204 -56.92902,89.6827 -26.70983,20.47101 -60.24331,32.16884 -93.9718,32.16884 -34.31335,0.38972 -68.62672,-11.11306 -95.92145,-32.16884 -23.59045,-18.13151 -41.72196,-43.28188 -51.66504,-71.35652 -14.03728,-39.1873 -11.3078,-84.22351 7.60355,-121.46143 23.00556,-46.98598 71.16124,-80.32436 123.21618,-85.19839 z"
     id="path28-3-5-4-4-8-6-6"
     style="fill:#ffffff;fill-opacity:1;stroke:none;display:inline" /><path
     d="m -479.65984,274.90855 c 30.21918,-3.11932 61.41313,2.92426 88.12293,17.15663 29.63429,15.40192 53.80962,40.55229 68.04188,70.57631 14.81714,30.99889 18.91134,66.87221 11.50277,100.6007 -7.79849,35.28815 -28.26953,67.65204 -56.92902,89.6827 -26.70983,20.47101 -60.24331,32.16884 -93.9718,32.16884 -34.31335,0.38972 -68.62672,-11.11306 -95.92145,-32.16884 -23.59045,-18.13151 -41.72196,-43.28188 -51.66504,-71.35652 -14.03728,-39.1873 -11.3078,-84.22351 7.60355,-121.46143 23.00556,-46.98598 71.16124,-80.32436 123.21618,-85.19839 z"
     id="path28-3-5-4-4-8-6-2"
     style="fill:#ffffff;fill-opacity:1;stroke:none;display:inline" /><path
     d="m 357.79602,-964.80927 a 84.852815,84.852815 0 1 1 -169.70563,0 84.852815,84.852815 0 1 1 169.70563,0 z"
     transform="matrix(-0.99999999,0,0,-0.99999999,543.5398,-1899.0405)"
     id="path3588-7"
     style="fill:#ff00ff" /><path
     d="m 357.79602,-964.80927 a 84.852815,84.852815 0 1 1 -169.70563,0 84.852815,84.852815 0 1 1 169.70563,0 z"
     transform="matrix(-0.73832783,0,0,-0.73832783,442.0069,-1624.2631)"
     id="path3588-1"
     style="fill:#ff00ff" /><path
     d="m 357.79602,-964.80927 a 84.852815,84.852815 0 1 1 -169.70563,0 84.852815,84.852815 0 1 1 169.70563,0 z"
     transform="matrix(-0.76332783,0,0,-0.76332783,450.9518,-1650.5047)"
     id="path3588-0"
     style="fill:#ff00ff" /></defs>




<path
   d="m 553.91007,209.56267 c -1.89964,-7.18918 -4.07158,-14.32258 -6.55096,-21.33681 C 530.62002,140.68715 501.04942,97.605835 462.07124,65.630213 414.58224,26.530737 354.22994,2.8787921 292.60811,1.3821208 232.00695,-0.78839496 170.93019,17.563722 121.50325,52.617702 68.829491,89.742067 30.189124,145.72756 13.235719,207.89703 -2.3044304,264.88559 1.022991,326.64332 22.389953,381.74636 44.557647,439.83631 86.842197,490.11429 140.4837,521.5625 c 48.11128,28.728 104.8439,42.55844 160.60795,38.62165 56.10083,-3.42685 110.74,-24.28513 154.74032,-58.68543 44.88375,-34.83724 77.95527,-83.91107 94.90614,-137.87597 15.56886,-49.6929 16.47371,-103.73455 3.17196,-154.06008 z"
   id="path6-1-09-24-1-2-1"
   style="fill:#f9f9f9;fill-opacity:1;stroke:none;display:inline" /><path
   d="M 284.42066,-1.9521818e-6 C 276.88904,-0.02610881 269.34063,0.22883473 261.8282,0.81573706 210.92997,4.7303604 161.02891,22.367252 119.52702,52.119537 68.824293,88.330959 29.862704,141.17697 12.244188,201.07304 c -18.0102218,58.72085 -16.0665657,123.28704 5.271577,180.83389 22.512558,61.26618 67.156998,113.74709 123.536865,146.63145 51.68155,30.1435 112.97523,43.07794 172.4873,36.61865 62.64426,-6.45967 122.91928,-34.64881 167.74911,-78.8854 40.71886,-39.53915 69.12253,-91.4185 79.88952,-147.00794 11.35419,-55.78524 5.27098,-114.71015 -16.85022,-166.77646 C 522.01129,119.4421 482.66911,74.221404 434.31555,43.490416 389.77935,15.231343 337.14428,0.17903087 284.42066,-1.9521818e-6 z M 283.66759,5.1146332 c 53.50359,0.043178 107.04638,15.6620098 151.80894,45.0594418 47.96206,31.709796 86.34364,77.875065 107.09463,131.506985 22.70837,57.54694 25.24342,122.5681 7.62496,181.68126 -16.63995,56.76365 -52.66723,107.24158 -99.8462,142.86599 -43.65524,33.07973 -97.47331,52.26635 -152.09131,55.00642 C 235.0271,564.75812 170.80211,546.15617 119.90355,508.76992 73.507663,474.90752 37.502776,426.7279 19.492558,372.11686 0.30772781,315.15701 0.30772781,251.75689 19.492558,194.79736 38.873094,135.68459 79.580922,84.232584 131.26256,50.174075 167.8703,26.098225 210.35973,11.217013 254.01501,6.7148837 263.86433,5.6447032 273.75982,5.1067008 283.66759,5.1146332 z m -2.38477,11.7982938 c -9.115,0.09038 -18.21074,0.666328 -27.26781,1.725765 -29.16879,2.936216 -57.57224,11.171024 -84.00002,23.502501 C 121.66146,64.846934 80.756735,102.58611 53.349852,148.38859 20.266123,204.36962 9.1066438,272.73055 22.22243,336.34544 c 31.172005,122.43817 107.69473,190.70068 230.8198,211.77309 62.64447,7.43806 127.63129,-8.21127 179.70438,-43.83569 45.61291,-31.31809 81.82987,-76.56148 100.81892,-128.43198 C 555.49085,316.34667 555.28639,249.0225 532.96934,189.71394 511.43534,131.57988 468.3746,82.065413 414.7354,51.335126 375.44808,29.069888 330.34845,17.13855 285.20519,16.912927 c -1.30215,-0.01004 -2.62013,-0.01306 -3.92237,0 z m 31.09609,16.787415 34.04561,7.938796 c 6.31302,1.470721 11.00458,3.13202 14.08891,4.989122 3.08421,1.857303 5.32354,4.474916 6.68361,7.876038 1.35994,3.401123 1.54723,7.25339 0.56482,11.453082 -0.85625,3.659979 -2.36566,6.6209 -4.54987,8.911475 -2.18442,2.290778 -4.84854,3.94535 -7.97013,4.957894 -1.98928,0.643735 -4.61558,0.958623 -7.81323,0.941253 2.24553,1.377238 3.87802,2.602251 4.80091,3.671328 0.62515,0.715027 1.43352,2.102105 2.44751,4.204711 1.01386,2.102606 1.62621,3.697536 1.88271,4.769523 l 5.42847,21.431516 -23.09453,-5.39709 -6.21294,-22.686655 c -0.77237,-2.932102 -1.61053,-4.898552 -2.51029,-5.930475 -1.23447,-1.36308 -2.7488,-2.264268 -4.61261,-2.698645 l -1.81994,-0.439198 -6.2757,26.765743 -20.49017,-4.769513 15.40686,-65.988905 z m -65.39266,2.384762 c 6.77964,0.06226 12.61423,1.760005 17.50917,5.083408 7.11973,4.833886 11.67981,12.624777 13.68098,23.345559 1.45275,7.783059 1.3187,14.392714 -0.37653,19.862501 -1.69523,5.469891 -4.78058,10.05044 -9.22526,13.743757 -4.44479,3.693411 -10.35518,6.217141 -17.7602,7.593581 -7.52651,1.39912 -13.98243,1.38185 -19.36056,-0.0944 -5.37809,-1.47563 -10.08849,-4.52201 -14.12019,-9.13107 -4.0318,-4.608865 -6.73707,-10.792778 -8.18982,-18.576037 -2.02941,-10.872202 -0.60889,-19.92576 4.33022,-27.110971 4.93923,-7.185211 12.85632,-11.792569 23.69078,-13.806512 3.47089,-0.645142 6.73969,-0.938343 9.82141,-0.910026 z m 82.80769,15.720649 -3.13784,13.429972 8.62908,2.008221 c 0.93188,0.217088 2.76939,0.353346 5.58535,0.376541 1.41593,0.04519 2.68032,-0.407468 3.79679,-1.317895 1.1164,-0.910427 1.85957,-2.074391 2.19649,-3.514385 0.49822,-2.129919 0.17612,-3.941935 -0.90996,-5.397093 -1.0862,-1.455056 -3.458,-2.614601 -7.18567,-3.483057 l -8.97424,-2.102304 z m -86.6673,0.470626 c -1.0056,0 -2.02147,0.112261 -3.1064,0.313886 -4.15783,0.772662 -7.25469,2.869947 -9.22526,6.275687 -1.97057,3.40564 -2.30173,8.529012 -1.03544,15.312679 1.25473,6.72322 3.41197,11.302864 6.46385,13.775084 3.05198,2.472219 6.73587,3.311254 11.04521,2.510275 4.43085,-0.823572 7.58554,-2.916036 9.47638,-6.244258 1.89065,-3.328326 2.11225,-8.709752 0.72166,-16.159947 -1.17019,-6.26896 -3.26456,-10.632221 -6.33845,-13.053432 -2.30553,-1.815833 -4.984,-2.729573 -8.00155,-2.729974 z m -72.79797,6.715086 7.87603,12.26892 -25.88717,16.630573 6.40122,9.946915 22.12174,-14.214382 7.40531,11.48451 -22.12175,14.214479 15.03022,23.28272 -17.72887,11.35908 -36.74409,-56.95192 43.64736,-28.020895 z m 232.85946,2.44742 52.11958,36.650016 L 445.64316,111.7699 428.16536,99.469553 398.701,141.14011 381.56837,129.09079 411.00135,87.42023 393.52357,75.119883 403.18813,61.438885 z M 284.07556,115.37846 c 26.55466,0.15354 53.11142,6.51479 76.81443,18.92127 35.43829,18.01032 63.63621,49.32288 78.32059,86.32203 13.90118,34.45432 16.06401,73.59242 5.49122,109.41657 -9.78955,34.06293 -30.54646,65.01522 -58.74045,86.35347 -26.62769,20.75103 -59.92577,33.07607 -93.60189,34.64178 -38.76677,2.34912 -78.31718,-9.58863 -109.44799,-32.88459 -27.21499,-19.96763 -47.75236,-48.76432 -58.52085,-80.67393 -11.94297,-34.65014 -11.94297,-73.40959 0,-108.25561 10.57269,-31.3221 30.73239,-59.70197 57.3598,-79.66992 24.27816,-18.40161 53.65242,-30.12891 84.00013,-33.26113 6.09405,-0.62376 12.19702,-0.94536 18.32501,-0.90994 z m 197.08799,9.85285 11.04521,17.76018 -35.26936,21.77664 c -3.15045,1.94466 -5.05019,4.3495 -5.74227,7.18571 -0.69213,2.83581 -0.0965,5.78859 1.81997,8.88005 1.90008,3.06514 4.26565,4.92084 7.09151,5.58537 2.82582,0.66432 5.83408,0.0322 9.03701,-1.94547 l 35.26934,-21.77663 11.01384,17.76019 -34.45353,21.24326 c -3.41296,2.10663 -6.94734,3.58207 -10.63728,4.39297 -3.69004,0.81062 -7.40092,0.77026 -11.0766,-0.0944 -3.67575,-0.86433 -6.73219,-2.25181 -9.19389,-4.17328 -3.43019,-2.66401 -6.62868,-6.41827 -9.63318,-11.26491 -1.73774,-2.80327 -3.45407,-5.98179 -5.11468,-9.53905 -1.66065,-3.55726 -2.58052,-6.81067 -2.79268,-9.75873 -0.21217,-2.94788 0.18456,-5.98662 1.19238,-9.16252 1.0078,-3.1757 2.43704,-5.81622 4.29886,-7.90735 2.99332,-3.36901 5.88783,-5.96895 8.7232,-7.719 l 34.42215,-21.24326 z m -199.34723,2.03963 c -4.76803,0.0441 -9.53645,0.29501 -14.27714,0.78442 -52.26916,4.89353 -100.62508,38.36312 -123.72525,85.53763 -18.98903,37.38743 -21.75134,82.59197 -7.65633,121.93661 9.98395,28.18728 28.21258,53.46403 51.89993,71.66835 27.40689,21.14034 61.84596,32.67958 96.30048,32.28838 33.86663,0 67.53536,-11.73525 94.35494,-32.28838 28.77728,-22.11903 49.34096,-54.62629 57.17151,-90.05613 7.43894,-33.86379 3.33071,-69.88393 -11.54726,-101.00713 -14.2908,-30.14449 -38.5552,-55.42026 -68.31088,-70.88395 -22.62903,-12.05676 -48.46266,-18.21676 -74.21,-17.9798 z m -0.47064,5.42842 c 37.51356,-0.40003 75.26845,13.2145 102.85847,38.78375 -22.31652,2.15342 -42.88453,-7.62189 -63.63547,-14.27723 -18.00972,-5.67644 -35.42868,-13.86647 -54.22198,-16.41086 -11.74547,-1.95754 -23.49959,0.14316 -35.04968,1.31788 15.96697,-6.17819 32.99676,-9.23169 50.04866,-9.41354 z m -28.64856,10.51185 c 10.81597,-0.19571 21.66981,1.56368 31.84907,4.9891 23.49166,7.82996 46.60069,16.61993 70.28774,23.47109 9.59237,2.93602 19.57453,3.33372 29.55851,3.13785 -7.04757,8.41714 -14.27631,16.44068 -22.49835,23.87902 -6.26445,5.67644 -15.06962,9.20589 -23.87899,7.24837 -21.72944,-4.50192 -42.68879,-11.72479 -63.63552,-18.57604 -8.41746,15.65961 -4.31286,34.2488 0.97276,50.2996 4.30683,13.50649 10.56336,26.41291 17.41508,38.94068 11.35399,-10.37465 21.14191,-22.70172 34.45348,-30.53126 4.89415,-2.93632 11.37634,-3.14085 16.66198,-0.59615 7.63474,3.91472 13.50678,10.40099 21.33732,14.1203 6.06864,2.93601 12.92421,2.15753 19.58016,2.35344 -6.46026,12.33177 -14.49863,26.01377 -28.39749,30.90772 -11.55008,3.91442 -22.13316,-4.89645 -28.3975,-13.9007 -3.32801,-4.30592 -7.03258,-11.34113 -13.49274,-10.16661 -7.04754,3.3273 -11.73793,9.77641 -17.41508,15.06163 7.83057,19.18303 21.51959,36.80064 22.4984,58.33257 1.56611,18.20432 0.20299,37.41767 -9.19388,53.46886 -7.63445,13.89779 -18.7999,27.19944 -34.26529,32.28838 -9.59199,3.32802 -20.55655,-6.2e-4 -27.01681,-7.43665 -9.59235,-11.35347 -12.3169,-26.81666 -12.70821,-41.10573 -0.39161,-27.20898 11.33922,-53.07087 26.60892,-74.9945 -4.69834,-5.87232 -9.18741,-11.92682 -14.27724,-17.60326 -13.11619,0 -27.00797,1.15795 -39.53683,-4.51848 -18.79333,-7.43835 -30.95382,-26.02573 -34.67312,-45.40466 -3.32804,-17.02971 -2.72195,-35.8397 6.08732,-51.30378 9.20084,-15.85502 24.26121,-27.58863 40.5096,-35.6145 9.98398,-4.40421 20.75074,-6.55061 31.56671,-6.74629 z m 0.28245,4.54981 c -10.12001,0.10202 -20.16042,2.0252 -29.49572,6.30701 -15.4654,7.43825 -29.94308,18.78489 -38.75242,33.85738 -10.17968,17.61681 -8.62672,39.75313 -2.94959,58.74044 -1.3703,-18.79141 -0.0121,-38.96277 10.95113,-54.81818 9.78806,-14.48529 27.62007,-21.93196 44.65145,-21.14896 14.48651,0.78279 27.9896,7.05558 41.10577,12.92791 20.55513,6.85075 41.29314,14.0961 62.63137,18.01112 14.4865,1.17431 23.51044,-12.34934 32.31979,-21.7452 -28.58147,-3.71901 -55.22033,-15.8551 -82.43111,-24.66345 -11.89268,-4.73458 -25.01931,-7.59922 -38.03067,-7.46807 z m -54.34746,11.5786 c -6.26443,7.24244 -13.90169,13.13988 -18.79572,21.55703 -12.52888,18.7913 -12.73594,43.24784 -6.27569,64.38857 4.89402,17.02961 16.65256,32.49781 33.29247,39.34855 12.33309,5.87245 26.41321,5.89002 39.7252,5.303 4.89393,4.11053 8.40892,9.5719 12.51994,14.46541 -15.26958,22.70666 -26.79576,49.14427 -26.01277,76.93993 0.58721,14.2895 3.69573,29.16409 12.89658,40.32126 3.91535,4.89352 9.61919,7.66247 14.90483,10.79417 -32.30134,-4.69761 -62.8605,-20.3775 -85.56906,-43.86695 -27.21118,-27.59978 -42.67467,-66.36042 -42.67467,-105.11786 0,-48.54492 24.48702,-97.90346 65.98889,-124.13311 z m -80.39165,8.25258 15.87758,10.19794 -10.88837,16.91303 -15.87748,-10.19795 10.88827,-16.91302 z m 270.07427,7.62501 c 20.75094,19.77011 35.23419,46.00642 41.89024,73.80207 8.02563,34.45134 3.72838,71.65771 -12.52,103.17233 -17.22723,33.8642 -47.77498,60.48227 -83.40391,73.20583 -20.55512,7.63376 -42.65872,9.59126 -64.38856,8.22116 7.83055,-2.93641 16.03816,-5.27459 22.49838,-10.95113 18.40115,-15.26779 30.5481,-38.58595 30.93912,-62.66269 0.39149,-14.48529 -0.20023,-29.37154 -6.46397,-42.4864 -5.28565,-10.96188 -10.56063,-21.93036 -15.8461,-32.69634 4.11098,-4.50192 8.01137,-9.39536 13.4927,-12.33167 3.32804,-1.76172 5.87949,1.95751 8.03289,4.11051 5.48144,8.02546 11.94068,16.06467 21.33736,19.39189 9.20085,2.93641 19.16851,-1.1731 25.82444,-7.43666 9.59177,-8.61293 15.66832,-20.37057 21.14907,-31.72363 -7.63415,1.56592 -15.6556,3.35182 -23.09453,0.21969 -9.39605,-3.91472 -15.85546,-12.36159 -25.44792,-15.68921 -5.87285,-1.76172 -12.13684,-0.7547 -17.22676,2.57292 -11.94099,7.43826 -21.14348,18.17861 -31.12746,27.76997 -9.98328,-17.61679 -18.2201,-36.59418 -20.9608,-56.95181 -1.17381,-8.02545 0.20905,-16.05663 2.94967,-23.69079 20.16294,6.85117 40.33542,13.7047 61.28204,18.01124 9.39667,2.34881 18.96588,-1.37604 26.01273,-7.24838 9.20084,-8.02585 17.04511,-17.40886 25.07137,-26.6089 z m -154.57019,0.21959 c -6.19577,0.0894 -12.35959,1.26056 -18.29357,3.89092 -16.24843,6.26365 -25.82131,23.07919 -28.36613,39.91338 -3.52381,16.638 -0.2211,35.46466 12.11199,47.60114 11.54998,11.94008 28.9755,15.25556 45.0281,14.27714 -9.20085,-16.0513 -20.158,-31.92326 -23.09452,-50.51928 -0.97881,-2.93601 2.15292,-4.70175 4.11063,-6.46396 15.8567,-12.33187 31.90158,-24.84439 47.75788,-37.37167 -11.84318,-6.45964 -25.62368,-11.52378 -39.25438,-11.32767 z m -0.0312,3.13785 c 11.46132,-0.17421 22.95225,3.86863 33.22982,8.56636 -14.878,12.13599 -30.14268,23.90113 -45.21627,35.6459 -1.76193,1.56581 -4.70538,3.11997 -3.92236,6.056 1.7619,18.00842 12.33075,33.47902 20.55283,49.13863 -15.4653,0 -32.50848,-5.09375 -41.51363,-18.79565 -10.57128,-15.26788 -8.97935,-35.63092 -3.10641,-52.46473 4.50242,-12.72359 15.46952,-23.09273 28.5857,-26.42076 3.76842,-1.12539 7.56989,-1.6677 11.39032,-1.72575 z M 70.1376,188.8982 68.91379,207.78792 c -2.16687,0.0441 -3.84052,0.27726 -4.957694,0.69042 -1.869251,0.67598 -3.433553,1.72085 -4.738194,3.10643 -1.30464,1.38567 -2.237158,3.07218 -2.82406,5.0833 -1.329241,4.55505 -0.520027,8.58756 2.447518,12.08065 2.191671,2.62636 6.210422,4.76731 12.049321,6.46406 7.232104,2.10139 12.49364,2.4447 15.814734,1.03543 3.321095,-1.40917 5.58978,-4.06946 6.746414,-8.03287 1.121893,-3.84505 0.867953,-7.06883 -0.721753,-9.66456 -1.589708,-2.59552 -4.32902,-4.94413 -8.189724,-7.02878 L 95.05208,195.45625 c 4.604453,2.62162 8.1857,5.68586 10.76275,9.19383 2.57734,3.50846 4.14918,7.41094 4.73819,11.67277 0.58891,4.26205 0.0372,9.29777 -1.66301,15.12451 -2.06285,7.06875 -4.79111,12.55992 -8.15839,16.4423 -3.367576,3.88209 -8.109586,6.69462 -14.245903,8.44076 -6.136119,1.74634 -13.277148,1.44129 -21.368668,-0.90993 -10.788761,-3.13523 -18.217068,-8.40781 -22.34145,-15.81474 -4.12429,-7.407 -4.655565,-16.35814 -1.600351,-26.8286 2.390889,-8.19284 5.918425,-14.13105 10.606013,-17.85428 4.687488,-3.72326 10.815472,-5.74562 18.356339,-6.02467 z m 195.04839,10.19794 c -13.11617,9.98306 -26.22353,19.96122 -38.75241,30.53119 -0.58722,4.50193 1.35966,8.80975 2.72997,13.11627 7.24324,17.61702 17.22541,34.27722 29.5585,48.762 14.29068,17.81261 31.11616,35.22568 37.96792,57.73632 5.87287,21.92326 3.92494,46.40696 -7.62502,66.1772 15.07379,-13.7024 25.4496,-33.08022 26.23242,-53.43743 0.39149,-14.28951 0.59989,-29.56001 -6.05605,-42.6747 -8.02635,-16.0509 -15.67325,-32.31055 -24.2869,-48.16595 -11.15847,-22.31533 -21.53033,-46.59814 -19.76843,-72.0449 z m 263.48478,16.91302 2.44752,19.39179 -34.077,30.02922 37.2776,-4.70678 2.47889,19.58015 -67.33813,8.50361 -2.4789,-19.58015 33.7632,-29.8096 -36.9638,4.644 -2.47889,-19.54873 67.36951,-8.50351 z M 335.3168,248.45438 c -0.53287,0.0181 -1.08121,0.0713 -1.63166,0.15695 -8.22204,2.3488 -14.28844,9.21189 -20.55288,14.49685 5.08983,1.3704 10.76121,2.33825 14.0889,6.84048 5.87285,7.63415 11.55055,17.64522 22.12182,19.01533 12.92039,0 21.16031,-12.13889 27.42475,-22.12175 -7.43897,-0.78298 -15.27613,-2.567 -21.14907,-7.65635 -6.23994,-4.03732 -12.30924,-11.00613 -20.30186,-10.73151 z m -254.636016,27.33068 18.858395,0 0.03113,20.08218 -18.889823,0.0312 0,-20.11354 z m 390.316406,26.8286 57.86185,43.67879 -6.52672,21.87073 -72.35868,5.14606 6.24432,-20.99213 11.70415,0 6.77775,-22.84349 -9.79007,-6.36989 6.0874,-20.49007 z m -387.900316,8.25248 c 2.094473,0.0401 4.182821,0.40306 6.275688,1.06687 4.186034,1.32783 7.771309,3.82415 10.762858,7.46807 2.99143,3.64392 5.38492,8.64801 7.15428,14.96758 3.10671,11.0962 3.11684,19.35421 0.0312,24.82027 -3.08502,5.46619 -7.834447,9.39427 -14.277121,11.7983 l -6.589473,-18.82706 c 3.005502,-1.28577 5.154699,-2.78681 6.43253,-4.51851 2.064652,-2.81462 2.554858,-6.15277 1.474837,-10.00965 -0.805698,-2.87788 -2.133433,-4.90697 -3.922254,-6.08752 -1.788822,-1.18024 -3.550432,-1.53278 -5.334436,-1.03543 -1.694435,0.47253 -2.999679,1.65787 -3.922255,3.51438 -0.922475,1.8566 -1.201218,5.62754 -0.878596,11.35898 0.483478,9.39696 -0.422028,16.42957 -2.667117,21.11775 -2.236856,4.7177 -5.89995,7.79953 -11.013882,9.22516 -3.359652,0.93673 -6.822626,0.85921 -10.354886,-0.25104 -3.532058,-1.11003 -6.705747,-3.38413 -9.507616,-6.80906 -2.80187,-3.42483 -5.157913,-8.51837 -7.060201,-15.31268 -2.334263,-8.33712 -2.571936,-15.12219 -0.690325,-20.36455 1.881803,-5.24246 6.099267,-9.26593 12.645562,-11.98667 l 6.463858,18.73299 c -2.801968,1.32512 -4.668608,2.96785 -5.553934,4.95778 -0.885123,1.99014 -0.922877,4.40021 -0.125513,7.24848 0.656386,2.34369 1.683994,3.98592 3.01233,4.89503 1.328338,0.90882 2.683584,1.15081 4.110626,0.75309 1.040559,-0.29009 1.826375,-1.04819 2.384762,-2.25926 0.596241,-1.18976 0.787021,-3.66911 0.533383,-7.43674 -0.564211,-9.34243 -0.409176,-16.19749 0.470726,-20.55283 0.879902,-4.35552 2.52845,-7.81517 4.926364,-10.35498 2.398117,-2.5395 5.343674,-4.30812 8.911478,-5.30291 2.096079,-0.58438 4.212745,-0.8556 6.307015,-0.81584 z m 185.791776,0.40797 c -17.2272,16.63831 -24.06271,40.90655 -25.82441,64.20018 -0.58729,12.13649 -0.78962,25.06079 5.08322,36.02247 4.69823,8.80845 16.04387,14.47302 25.63623,10.16661 9.20086,-4.50183 14.88644,-13.88735 17.82296,-23.28271 3.91521,-13.11488 4.50675,-27.01065 2.35333,-40.32135 -2.93592,-18.0084 -13.91276,-33.08291 -25.07133,-46.7852 z m -0.18827,5.27159 c 11.54999,13.31098 21.14435,29.37302 22.90627,47.38133 0.9788,14.09369 0.19209,28.97842 -6.46396,41.70201 -3.32802,6.65533 -9.1841,12.90723 -16.81886,14.27714 -9.00514,0.78299 -16.84694,-6.24416 -19.39186,-14.46542 -4.89414,-14.48538 -3.13363,-29.97078 -0.78451,-44.65158 2.93642,-15.46359 8.42919,-31.52644 19.39198,-43.2708 l 1.16094,-0.97268 z m 218.80187,21.43142 -4.26747,14.30856 25.54205,-0.25102 -21.27458,-14.05754 z m -380.05571,53.12375 11.67276,16.41086 -15.46951,10.91971 -11.610009,-16.44231 15.406759,-10.88826 z m 356.6474,0.0944 15.40682,10.88827 -11.6414,16.4423 -15.40682,-10.9197 11.6414,-16.41087 z m -313.87854,20.86671 17.28956,11.89239 -14.52827,21.0863 32.66491,-8.69189 22.96902,15.75209 -34.86139,7.09142 -2.63581,49.38976 -21.30589,-14.62245 3.985,-31.03322 -15.3441,3.2006 -9.38211,13.61823 -17.28945,-11.82961 38.43853,-55.85362 z m 267.6581,1.69434 38.25032,55.94779 -16.15991,11.01389 -42.29812,-16.56781 21.18044,30.93904 -16.34818,11.17072 -38.25032,-55.97914 16.31681,-11.10787 42.01572,16.41087 -20.99217,-30.71944 16.28541,-11.10805 z m -201.0103,32.44539 14.05755,2.72988 -2.57304,13.17895 -14.05755,-2.7613 2.57304,-13.14753 z m 55.38289,10.38622 14.05755,2.72988 -2.57294,13.17895 -14.08896,-2.76132 2.60435,-13.14751 z m 50.17418,5.08332 10.73142,49.92315 32.03739,-6.90326 3.51438,16.34811 -52.5275,11.26485 -14.27719,-66.23988 20.5215,-4.39297 z m -81.3329,0.3452 c 2.48204,0.0441 5.09966,0.30897 7.81316,0.7844 11.12825,1.95011 19.19026,6.4445 24.16151,13.46132 4.97084,7.01712 6.50251,15.86824 4.61258,26.6089 -1.37222,7.79783 -3.8343,13.98306 -7.34255,18.51341 -3.50837,4.53012 -8.00176,7.75933 -13.4613,9.66449 -5.45985,1.90516 -11.87894,2.20995 -19.29781,0.90997 -7.54055,-1.32131 -13.55486,-3.60903 -18.07396,-6.87193 -4.51912,-3.26256 -7.85186,-7.76629 -10.00978,-13.49261 -2.15783,-5.72656 -2.5645,-12.50409 -1.19229,-20.30193 1.91646,-10.89257 6.43786,-18.84482 13.58683,-23.84759 5.36154,-3.75206 11.75742,-5.56025 19.20361,-5.42843 z m 1.97687,16.1284 c -2.91342,0.0582 -5.46938,1.04269 -7.75052,2.91826 -3.04154,2.50105 -5.20531,7.13552 -6.40121,13.93202 -1.18523,6.73588 -0.76673,11.83596 1.22382,15.21861 1.99036,3.38254 5.15883,5.425 9.4762,6.1815 4.43917,0.77788 8.1369,-0.0543 11.07663,-2.51027 2.93953,-2.45625 5.02497,-7.44078 6.33845,-14.90482 1.10512,-6.28052 0.64825,-11.09149 -1.38066,-14.43407 -2.02901,-3.3423 -5.19115,-5.38827 -9.53904,-6.15019 -1.04136,-0.18223 -2.07278,-0.27031 -3.04367,-0.25104 z"
   id="path6-1-09-24-1-2"
   style="fill:#e80000;fill-opacity:1;stroke:none;display:inline" /></svg>